HIERARCHY
ROOT Hips
{
    OFFSET 0.000000 0.000000 0.000000
    CHANNELS 6 Xposition Yposition Zposition Zrotation Xrotation Yrotation
    JOINT Spine
    {
        OFFSET -0.000000 7.871866 0.000000
        CHANNELS 3 Zrotation Xrotation Yrotation
        JOINT Spine1
        {
            OFFSET -0.000000 20.477478 0.000000
            CHANNELS 3 Zrotation Xrotation Yrotation
            JOINT Neck
            {
                OFFSET -0.000000 20.393381 1.853944
                CHANNELS 3 Zrotation Xrotation Yrotation
                JOINT Head
                {
                    OFFSET -0.000000 13.439772 -1.919967
                    CHANNELS 3 Zrotation Xrotation Yrotation
                    End Site
                    {
                        OFFSET -0.000000 23.999592 0.000000
                    }
                }
            }
            JOINT LeftShoulder
            {
                OFFSET 3.872530 18.410604 -0.225466
                CHANNELS 3 Zrotation Xrotation Yrotation
                JOINT LeftArm
                {
                    OFFSET 11.402711 0.000000 0.000000
                    CHANNELS 3 Zrotation Xrotation Yrotation
                    JOINT LeftForeArm
                    {
                        OFFSET 30.885973 0.000000 0.000000
                        CHANNELS 3 Zrotation Xrotation Yrotation
                        JOINT LeftHand
                        {
                            OFFSET 25.505432 0.000000 0.000000
                            CHANNELS 3 Zrotation Xrotation Yrotation
                            End Site
                            {
                                OFFSET 14.399755 0.000000 0.000000
                            }
                        }
                    }
                }
            }
            JOINT RightShoulder
            {
                OFFSET -3.749425 18.410604 -0.225466
                CHANNELS 3 Zrotation Xrotation Yrotation
                JOINT RightArm
                {
                    OFFSET -11.402711 0.000000 0.000000
                    CHANNELS 3 Zrotation Xrotation Yrotation
                    JOINT RightForeArm
                    {
                        OFFSET -30.885973 0.000000 0.000000
                        CHANNELS 3 Zrotation Xrotation Yrotation
                        JOINT RightHand
                        {
                            OFFSET -25.505432 0.000000 0.000000
                            CHANNELS 3 Zrotation Xrotation Yrotation
                            End Site
                            {
                                OFFSET -14.399755 0.000000 0.000000
                            }
                        }
                    }
                }
            }
        }
    }
    JOINT LeftUpLeg
    {
        OFFSET 9.599837 0.000000 0.000000
        CHANNELS 3 Zrotation Xrotation Yrotation
        JOINT LeftLeg
        {
            OFFSET -0.000000 -39.304852 0.000000
            CHANNELS 3 Zrotation Xrotation Yrotation
            JOINT LeftFoot
            {
                OFFSET -0.000000 -46.901295 0.000000
                CHANNELS 3 Zrotation Xrotation Yrotation
                JOINT LeftToeBase
                {
                    OFFSET -0.000000 -6.239893 14.399755
                    CHANNELS 3 Zrotation Xrotation Yrotation
                    End Site
                    {
                        OFFSET -0.000000 0.000000 3.839935
                    }
                }
            }
        }
    }
    JOINT RightUpLeg
    {
        OFFSET -9.599837 0.000000 0.000000
        CHANNELS 3 Zrotation Xrotation Yrotation
        JOINT RightLeg
        {
            OFFSET -0.000000 -39.304852 0.000000
            CHANNELS 3 Zrotation Xrotation Yrotation
            JOINT RightFoot
            {
                OFFSET -0.000000 -46.901295 0.000000
                CHANNELS 3 Zrotation Xrotation Yrotation
                JOINT RightToeBase
                {
                    OFFSET -0.000000 -6.239893 14.399755
                    CHANNELS 3 Zrotation Xrotation Yrotation
                    End Site
                    {
                        OFFSET -0.000000 0.000000 3.839935
                    }
                }
            }
        }
    }
}
MOTION
Frames:    7
Frame Time:    0.008333
-81.349113    94.537056    -62.644367    -3.942820    1.482671    150.042404    -6.285136    -2.786965    -1.509553    0.275238    -0.352111    -1.355480    4.508331    26.610743    -12.032210    16.973961    0.079945    -9.686606    10.168974    4.513649    -13.186747    -62.571236    54.314266    -23.348053    -1.710079    -5.258217    -14.684166    13.456566    -5.338816    1.180288    -0.866677    7.467054    -7.779685    57.691193    63.884800    19.781385    -4.347903    -5.402238    20.813816    1.151202    -4.668421    -6.223939    1.763231    -20.506615    -3.316162    14.142620    44.901524    -11.820985    -6.048178    59.385105    -67.045853    0.000000    0.000000    0.000000    4.820251    -10.273432    13.156167    0.235488    15.850734    10.121325    -18.234575    5.170486    -29.244509    0.000000    0.000000    0.000000    
-81.099556    94.543854    -62.977337    -3.940094    1.604407    149.405289    -6.298861    -2.717893    -1.351965    0.195178    -0.407763    -1.201532    4.447935    26.629532    -11.949736    16.854439    0.067027    -9.620539    10.118583    4.577098    -13.143190    -62.718864    53.970360    -23.195814    -1.729755    -5.521393    -14.686795    13.678612    -5.609032    1.123050    -0.956792    7.480488    -7.727035    57.536877    63.772369    19.953491    -4.257445    -5.438930    21.035166    1.053184    -4.706946    -6.116689    1.462555    -21.223225    -3.788181    14.142620    44.901524    -11.820985    -7.649133    60.260700    -64.653427    0.000000    0.000000    0.000000    4.867374    -9.818832    13.709567    0.238022    14.785670    -1.201358    -18.649118    2.514299    -18.279068    0.000000    0.000000    0.000000    
-80.860481    94.552353    -63.290787    -3.939483    1.706091    148.815872    -6.337997    -2.681209    -1.210283    0.157114    -0.402327    -1.061065    4.401833    26.618277    -11.891176    16.745899    0.028538    -9.574239    10.048125    4.612217    -13.118639    -62.834480    53.589603    -23.074617    -1.744149    -5.782506    -14.662930    13.737864    -5.881377    1.036420    -1.011654    7.486562    -7.692838    57.227852    63.692780    20.235506    -4.208430    -5.425052    21.268238    0.954272    -4.688046    -6.117219    1.211955    -21.835171    -4.069911    15.905954    44.359653    -13.675862    -15.020245    68.006905    -57.388737    0.000000    0.000000    0.000000    4.924742    -9.408528    14.014375    0.156057    15.548553    10.487364    -18.448830    4.851449    -29.409901    0.000000    0.000000    0.000000    
-80.632164    94.564461    -63.596428    -3.951222    1.798413    148.252808    -6.452641    -2.718138    -1.063865    0.242895    -0.278779    -0.909870    4.332030    26.581577    -11.849416    16.654175    -0.048837    -9.541094    9.944370    4.570060    -13.222311    -63.036804    53.115040    -22.861950    -1.793962    -5.884187    -14.663984    13.839102    -5.998606    0.952822    -1.115096    7.492906    -7.678194    56.886364    63.921444    20.598774    -4.600467    -5.527143    21.386395    1.134343    -4.720448    -6.012032    0.990652    -22.427481    -4.728746    -7.298725    64.367897    6.399163    -8.291436    -5.227303    5.197362    0.000000    0.000000    0.000000    4.948652    -9.009875    14.296693    0.090802    15.380476    10.647435    -18.489134    4.667802    -29.376827    0.000000    0.000000    0.000000    
-80.405334    94.574570    -63.924347    -3.963657    1.904865    147.674393    -6.437129    -2.648588    -0.977230    0.145784    -0.325278    -0.827719    4.264034    26.554384    -11.733250    16.460470    -0.047544    -9.455259    9.838185    4.606665    -13.122522    -63.205307    52.696136    -22.626104    -1.853553    -6.015213    -14.687918    13.829817    -6.146489    0.880037    -1.203233    7.511085    -7.583533    56.622219    63.886303    20.889891    -4.681762    -5.369686    21.581383    1.041166    -4.533637    -5.933729    0.770790    -23.020279    -5.745925    -7.631255    60.954494    7.683022    -25.410381    -1.181519    5.053639    0.000000    0.000000    0.000000    4.922046    -8.566566    14.829583    0.130311    15.173294    10.717666    -18.560303    4.508250    -29.496422    0.000000    0.000000    0.000000    
-80.175743    94.591682    -64.238419    -3.979344    1.978031    147.088089    -6.402210    -2.604547    -0.882923    0.017659    -0.380149    -0.736950    4.203585    26.568737    -11.630980    16.323633    -0.098937    -9.365924    9.780193    4.651791    -13.064467    -63.344894    52.292164    -22.415260    -1.933665    -6.224283    -14.752552    13.820992    -6.375353    0.810250    -1.235822    7.539769    -7.507065    56.326206    63.912251    21.198538    -4.827142    -5.218374    21.769150    0.940127    -4.340376    -5.852873    0.444030    -23.631208    -6.371290    -9.156462    61.755726    13.584852    1.068347    -6.877806    0.830413    0.000000    0.000000    0.000000    4.829066    -8.159267    15.669380    0.391741    14.920363    10.402565    -18.669521    4.398820    -29.535112    0.000000    0.000000    0.000000    
-79.949486    94.613121    -64.540695    -4.001604    2.022228    146.510727    -6.344218    -2.572863    -0.797815    -0.136849    -0.430677    -0.655629    4.128235    26.530563    -11.536224    16.224909    -0.118235    -9.287311    9.789040    4.675118    -13.009367    -63.516720    51.881947    -22.209677    -2.057055    -6.430290    -14.836079    13.960706    -6.627999    0.561027    -1.241429    7.505286    -7.464412    56.035027    64.155495    21.491501    -5.019913    -5.350126    21.985775    0.807165    -4.418831    -5.876441    0.098954    -24.203453    -6.640517    -9.130901    59.901070    15.488514    1.236270    -6.015614    -0.178147    0.000000    0.000000    0.000000    4.636454    -7.784048    16.629910    0.862451    14.620868    10.195576    -18.755182    4.375895    -29.833532    0.000000    0.000000    0.000000    
